<svg width="200" height="188" viewBox="0 0 200 188" fill="none" xmlns="http://www.w3.org/2000/svg">
<rect width="200" height="188" fill="#2A2A2A"/>
<path d="M0 28C0 12.536 12.536 0 28 0H172C187.464 0 200 12.536 200 28V160C200 175.464 187.464 188 172 188H28C12.536 188 0 175.464 0 160V28Z" fill="#2A2A2A"/>
<path d="M119.182 68.1818C118.636 63.5758 116.424 60 112.545 57.4545C108.667 54.9091 103.909 53.6364 98.2727 53.6364C94.1515 53.6364 90.5455 54.303 87.4545 55.6364C84.3939 56.9697 82 58.803 80.2727 61.1364C78.5758 63.4697 77.7273 66.1212 77.7273 69.0909C77.7273 71.5758 78.3182 73.7121 79.5 75.5C80.7121 77.2576 82.2576 78.7273 84.1364 79.9091C86.0152 81.0606 87.9848 82.0151 90.0455 82.7727C92.1061 83.5 94 84.0909 95.7273 84.5455L105.182 87.0909C107.606 87.7273 110.303 88.6061 113.273 89.7273C116.273 90.8485 119.136 92.3788 121.864 94.3182C124.621 96.2273 126.894 98.6818 128.682 101.682C130.47 104.682 131.364 108.364 131.364 112.727C131.364 117.758 130.045 122.303 127.409 126.364C124.803 130.424 120.985 133.652 115.955 136.045C110.955 138.439 104.879 139.636 97.7273 139.636C91.0606 139.636 85.2879 138.561 80.4091 136.409C75.5606 134.258 71.7424 131.258 68.9545 127.409C66.197 123.561 64.6364 119.091 64.2727 114H75.9091C76.2121 117.515 77.3939 120.424 79.4545 122.727C81.5455 125 84.1818 126.697 87.3636 127.818C90.5758 128.909 94.0303 129.455 97.7273 129.455C102.03 129.455 105.894 128.758 109.318 127.364C112.742 125.939 115.455 123.97 117.455 121.455C119.455 118.909 120.455 115.939 120.455 112.545C120.455 109.455 119.591 106.939 117.864 105C116.136 103.061 113.864 101.485 111.045 100.273C108.227 99.0606 105.182 98 101.909 97.0909L90.4545 93.8182C83.1818 91.7273 77.4242 88.7424 73.1818 84.8636C68.9394 80.9848 66.8182 75.9091 66.8182 69.6364C66.8182 64.4242 68.2273 59.8788 71.0455 56C73.8939 52.0909 77.7121 49.0606 82.5 46.9091C87.3182 44.7273 92.697 43.6364 98.6364 43.6364C104.636 43.6364 109.97 44.7121 114.636 46.8636C119.303 48.9848 123 51.8939 125.727 55.5909C128.485 59.2879 129.939 63.4848 130.091 68.1818H119.182Z" fill="#C2C298"/>
</svg>
